<svg width="19" height="18" viewBox="0 0 19 18" fill="none" xmlns="http://www.w3.org/2000/svg">
<g clip-path="url(#clip0_117_8060)">
<path d="M13.1962 8.35686H10.1426V5.30329C10.1426 5.2149 10.0703 5.14258 9.98186 5.14258H9.01758C8.92919 5.14258 8.85686 5.2149 8.85686 5.30329V8.35686H5.80329C5.7149 8.35686 5.64258 8.42919 5.64258 8.51758V9.48186C5.64258 9.57026 5.7149 9.64258 5.80329 9.64258H8.85686V12.6962C8.85686 12.7845 8.92919 12.8569 9.01758 12.8569H9.98186C10.0703 12.8569 10.1426 12.7845 10.1426 12.6962V9.64258H13.1962C13.2845 9.64258 13.3569 9.57026 13.3569 9.48186V8.51758C13.3569 8.42919 13.2845 8.35686 13.1962 8.35686Z" fill="#FF7A00"/>
<path d="M9.5 0C4.52991 0 0.5 4.02991 0.5 9C0.5 13.9701 4.52991 18 9.5 18C14.4701 18 18.5 13.9701 18.5 9C18.5 4.02991 14.4701 0 9.5 0ZM9.5 16.4732C5.37366 16.4732 2.02679 13.1263 2.02679 9C2.02679 4.87366 5.37366 1.52679 9.5 1.52679C13.6263 1.52679 16.9732 4.87366 16.9732 9C16.9732 13.1263 13.6263 16.4732 9.5 16.4732Z" fill="#FF7A00"/>
</g>
<defs>
<clipPath id="clip0_117_8060">
<rect width="18" height="18" fill="white" transform="translate(0.5)"/>
</clipPath>
</defs>
</svg>
