<svg width="38" height="38" viewBox="0 0 38 38" fill="none" xmlns="http://www.w3.org/2000/svg">
<rect x="0.5" y="0.5" width="37" height="37" rx="4.5" stroke="#FF7A00" stroke-opacity="0.6"/>
<path d="M17.7146 9.14285H9.57171C9.33599 9.14285 9.14314 9.33571 9.14314 9.57142V17.7143C9.14314 17.95 9.33599 18.1429 9.57171 18.1429H17.7146C17.9503 18.1429 18.1431 17.95 18.1431 17.7143V9.57142C18.1431 9.33571 17.9503 9.14285 17.7146 9.14285ZM16.3217 16.3214H10.9646V10.9643H16.3217V16.3214ZM28.4289 9.14285H20.286C20.0503 9.14285 19.8574 9.33571 19.8574 9.57142V17.7143C19.8574 17.95 20.0503 18.1429 20.286 18.1429H28.4289C28.6646 18.1429 28.8574 17.95 28.8574 17.7143V9.57142C28.8574 9.33571 28.6646 9.14285 28.4289 9.14285ZM27.036 16.3214H21.6789V10.9643H27.036V16.3214ZM28.4289 19.8571H20.286C20.0503 19.8571 19.8574 20.05 19.8574 20.2857V28.4286C19.8574 28.6643 20.0503 28.8571 20.286 28.8571H28.4289C28.6646 28.8571 28.8574 28.6643 28.8574 28.4286V20.2857C28.8574 20.05 28.6646 19.8571 28.4289 19.8571ZM27.036 27.0357H21.6789V21.6786H27.036V27.0357ZM16.6431 24.3571H13.2146V20.9286C13.2146 20.8107 13.1181 20.7143 13.0003 20.7143H11.7146C11.5967 20.7143 11.5003 20.8107 11.5003 20.9286V24.3571H8.07171C7.95385 24.3571 7.85742 24.4536 7.85742 24.5714V25.8571C7.85742 25.975 7.95385 26.0714 8.07171 26.0714H11.5003V29.5C11.5003 29.6179 11.5967 29.7143 11.7146 29.7143H13.0003C13.1181 29.7143 13.2146 29.6179 13.2146 29.5V26.0714H16.6431C16.761 26.0714 16.8574 25.975 16.8574 25.8571V24.5714C16.8574 24.4536 16.761 24.3571 16.6431 24.3571Z" fill="#FF7A00"/>
</svg>
