<svg width="22" height="21" viewBox="0 0 22 21" fill="none" xmlns="http://www.w3.org/2000/svg">
<path d="M10.7146 0.142853H2.57171C2.33599 0.142853 2.14314 0.33571 2.14314 0.571424V8.71428C2.14314 8.95 2.33599 9.14285 2.57171 9.14285H10.7146C10.9503 9.14285 11.1431 8.95 11.1431 8.71428V0.571424C11.1431 0.33571 10.9503 0.142853 10.7146 0.142853ZM9.32171 7.32142H3.96457V1.96428H9.32171V7.32142ZM21.4289 0.142853H13.286C13.0503 0.142853 12.8574 0.33571 12.8574 0.571424V8.71428C12.8574 8.95 13.0503 9.14285 13.286 9.14285H21.4289C21.6646 9.14285 21.8574 8.95 21.8574 8.71428V0.571424C21.8574 0.33571 21.6646 0.142853 21.4289 0.142853ZM20.036 7.32142H14.6789V1.96428H20.036V7.32142ZM21.4289 10.8571H13.286C13.0503 10.8571 12.8574 11.05 12.8574 11.2857V19.4286C12.8574 19.6643 13.0503 19.8571 13.286 19.8571H21.4289C21.6646 19.8571 21.8574 19.6643 21.8574 19.4286V11.2857C21.8574 11.05 21.6646 10.8571 21.4289 10.8571ZM20.036 18.0357H14.6789V12.6786H20.036V18.0357ZM9.64314 15.3571H6.21457V11.9286C6.21457 11.8107 6.11814 11.7143 6.00028 11.7143H4.71457C4.59671 11.7143 4.50028 11.8107 4.50028 11.9286V15.3571H1.07171C0.95385 15.3571 0.857422 15.4536 0.857422 15.5714V16.8571C0.857422 16.975 0.95385 17.0714 1.07171 17.0714H4.50028V20.5C4.50028 20.6179 4.59671 20.7143 4.71457 20.7143H6.00028C6.11814 20.7143 6.21457 20.6179 6.21457 20.5V17.0714H9.64314C9.76099 17.0714 9.85742 16.975 9.85742 16.8571V15.5714C9.85742 15.4536 9.76099 15.3571 9.64314 15.3571Z" fill="#FF7A00"/>
</svg>
