<svg width="12" height="12" viewBox="0 0 12 12" fill="none" xmlns="http://www.w3.org/2000/svg">
<path fill-rule="evenodd" clip-rule="evenodd" d="M5.99953 0.750001C5.90007 0.750001 5.80469 0.78951 5.73436 0.859836C5.66404 0.930162 5.62453 1.02555 5.62453 1.125L5.62453 9.96975L3.26503 7.6095C3.19461 7.53909 3.09911 7.49953 2.99953 7.49953C2.89994 7.49953 2.80444 7.53909 2.73403 7.6095C2.66361 7.67992 2.62405 7.77542 2.62405 7.875C2.62405 7.97458 2.66361 8.07009 2.73403 8.1405L5.73403 11.1405C5.76886 11.1754 5.81024 11.2031 5.8558 11.222C5.90136 11.2409 5.9502 11.2507 5.99953 11.2507C6.04885 11.2507 6.09769 11.2409 6.14325 11.222C6.18881 11.2031 6.23019 11.1754 6.26503 11.1405L9.26503 8.1405C9.29989 8.10564 9.32755 8.06424 9.34642 8.01869C9.36529 7.97313 9.375 7.92431 9.375 7.875C9.375 7.77542 9.33544 7.67992 9.26503 7.6095C9.19461 7.53909 9.09911 7.49953 8.99953 7.49953C8.89994 7.49953 8.80444 7.53909 8.73403 7.6095L6.37453 9.96975L6.37453 1.125C6.37453 1.02555 6.33502 0.930162 6.26469 0.859836C6.19437 0.78951 6.09898 0.750001 5.99953 0.750001Z" fill="black" fill-opacity="0.7"/>
</svg>
