<svg width="10" height="10" viewBox="0 0 10 10" fill="none" xmlns="http://www.w3.org/2000/svg">
<path d="M10 0.357153C10 0.26243 9.95948 0.171587 9.88735 0.104608C9.81522 0.0376284 9.71739 0 9.61538 0L0.384615 0C0.282609 0 0.18478 0.0376284 0.112651 0.104608C0.0405216 0.171587 0 0.26243 0 0.357153V1.78576C1.71661e-05 1.87384 0.0350828 1.95881 0.0984612 2.02434L3.46154 5.49443V8.92881C3.4616 9.00374 3.48704 9.07675 3.53425 9.13752C3.58146 9.19828 3.64806 9.24372 3.72462 9.26739L6.03231 9.9817C6.0901 9.99957 6.15163 10.0044 6.21185 9.99592C6.27206 9.98739 6.32923 9.9657 6.37865 9.93264C6.42808 9.89958 6.46834 9.85609 6.49612 9.80576C6.5239 9.75542 6.53842 9.69968 6.53846 9.64312V5.49443L9.90154 2.02434C9.96492 1.95881 9.99998 1.87384 10 1.78576V0.357153Z" fill="black" fill-opacity="0.7"/>
</svg>
