<svg width="28" height="28" viewBox="0 0 28 28" fill="none" xmlns="http://www.w3.org/2000/svg">
<path d="M7.0621 5.3875L8.43398 4.01562C8.46702 3.98241 8.49009 3.9406 8.50054 3.89493C8.511 3.84927 8.50843 3.80158 8.49313 3.7573C8.47782 3.71302 8.4504 3.67393 8.41398 3.64446C8.37756 3.615 8.3336 3.59634 8.2871 3.59062L3.28085 3C3.12148 2.98125 2.98398 3.11562 3.00273 3.27812L3.59335 8.28437C3.61835 8.49062 3.87148 8.57812 4.01835 8.43125L5.38398 7.06562L9.5621 11.2406C9.65898 11.3375 9.81835 11.3375 9.91523 11.2406L11.2402 9.91875C11.3371 9.82187 11.3371 9.6625 11.2402 9.56562L7.0621 5.3875ZM18.084 11.2406C18.1809 11.3375 18.3402 11.3375 18.4371 11.2406L22.6152 7.06562L23.9809 8.43125C24.0141 8.46429 24.0559 8.48735 24.1015 8.49781C24.1472 8.50827 24.1949 8.5057 24.2392 8.4904C24.2835 8.47509 24.3225 8.44767 24.352 8.41125C24.3815 8.37483 24.4001 8.33087 24.4059 8.28437L24.9965 3.28125C25.0152 3.12187 24.8809 2.98437 24.7184 3.00312L19.7121 3.59375C19.5059 3.61875 19.4184 3.87187 19.5652 4.01875L20.9371 5.39062L16.759 9.5625C16.7125 9.60948 16.6864 9.67294 16.6864 9.73906C16.6864 9.80518 16.7125 9.86864 16.759 9.91562L18.084 11.2406ZM24.4059 19.7156C24.3809 19.5094 24.1277 19.4219 23.9809 19.5687L22.6152 20.9344L18.4371 16.7594C18.3901 16.7128 18.3267 16.6867 18.2605 16.6867C18.1944 16.6867 18.131 16.7128 18.084 16.7594L16.759 18.0812C16.7125 18.1282 16.6864 18.1917 16.6864 18.2578C16.6864 18.3239 16.7125 18.3874 16.759 18.4344L20.9371 22.6125L19.5652 23.9844C19.5322 24.0176 19.5091 24.0594 19.4987 24.1051C19.4882 24.1507 19.4908 24.1984 19.5061 24.2427C19.5214 24.287 19.5488 24.3261 19.5852 24.3555C19.6216 24.385 19.6656 24.4037 19.7121 24.4094L24.7184 25C24.8777 25.0187 25.0152 24.8844 24.9965 24.7219L24.4059 19.7156ZM9.91523 16.7594C9.86824 16.7128 9.80479 16.6867 9.73867 16.6867C9.67254 16.6867 9.60909 16.7128 9.5621 16.7594L5.38398 20.9344L4.01835 19.5687C3.98514 19.5357 3.94333 19.5126 3.89766 19.5022C3.852 19.4917 3.80431 19.4943 3.76003 19.5096C3.71575 19.5249 3.67666 19.5523 3.64719 19.5887C3.61773 19.6252 3.59907 19.6691 3.59335 19.7156L3.00273 24.7187C2.98398 24.8781 3.11835 25.0156 3.28085 24.9969L8.2871 24.4062C8.49335 24.3812 8.58085 24.1281 8.43398 23.9812L7.0621 22.6125L11.2402 18.4375C11.3371 18.3406 11.3371 18.1812 11.2402 18.0844L9.91523 16.7594Z" fill="white"/>
</svg>
