<svg width="22" height="18" viewBox="0 0 22 18" fill="none" xmlns="http://www.w3.org/2000/svg">
<path d="M1.22222 12.5679H20.7778C21.45 12.5679 22 12.0327 22 11.3786C22 10.7245 21.45 10.1893 20.7778 10.1893H1.22222C0.55 10.1893 0 10.7245 0 11.3786C0 12.0327 0.55 12.5679 1.22222 12.5679ZM1.22222 17.325H20.7778C21.45 17.325 22 16.7898 22 16.1357C22 15.4816 21.45 14.9464 20.7778 14.9464H1.22222C0.55 14.9464 0 15.4816 0 16.1357C0 16.7898 0.55 17.325 1.22222 17.325ZM1.22222 7.81072H20.7778C21.45 7.81072 22 7.27554 22 6.62143C22 5.96732 21.45 5.43215 20.7778 5.43215H1.22222C0.55 5.43215 0 5.96732 0 6.62143C0 7.27554 0.55 7.81072 1.22222 7.81072ZM0 1.86429C0 2.5184 0.55 3.05357 1.22222 3.05357H20.7778C21.45 3.05357 22 2.5184 22 1.86429C22 1.21018 21.45 0.675003 20.7778 0.675003H1.22222C0.55 0.675003 0 1.21018 0 1.86429Z" fill="white"/>
</svg>
