<svg width="27" height="28" viewBox="0 0 27 28" fill="none" xmlns="http://www.w3.org/2000/svg">
<path d="M21.7577 16.8012L20.6327 14.9338C20.3964 14.5175 20.1827 13.73 20.1827 13.2688V10.4225C20.1827 7.77875 18.6302 5.495 16.3914 4.42625C15.8064 3.39125 14.7264 2.75 13.4889 2.75C12.2627 2.75 11.1602 3.41375 10.5752 4.46C8.38143 5.55125 6.86268 7.8125 6.86268 10.4225V13.2688C6.86268 13.73 6.64893 14.5175 6.41268 14.9225L5.27643 16.8012C4.82643 17.555 4.72518 18.3875 5.00643 19.1525C5.27643 19.9062 5.91768 20.4913 6.75018 20.7725C8.93268 21.515 11.2277 21.875 13.5227 21.875C15.8177 21.875 18.1127 21.515 20.2952 20.7838C21.0827 20.525 21.6902 19.9287 21.9827 19.1525C22.2752 18.3763 22.1964 17.5212 21.7577 16.8012Z" fill="white"/>
<path d="M16.6834 23.0113C16.2109 24.3163 14.9621 25.25 13.4996 25.25C12.6109 25.25 11.7334 24.89 11.1146 24.2488C10.7546 23.9113 10.4846 23.4613 10.3271 23C10.4734 23.0225 10.6196 23.0337 10.7771 23.0562C11.0359 23.09 11.3059 23.1237 11.5759 23.1462C12.2171 23.2025 12.8696 23.2362 13.5221 23.2362C14.1634 23.2362 14.8046 23.2025 15.4346 23.1462C15.6709 23.1237 15.9071 23.1125 16.1321 23.0787C16.3121 23.0562 16.4921 23.0338 16.6834 23.0113Z" fill="white"/>
</svg>
